<?xml version="1.0" encoding="UTF-8"?>
<!-- Generated by Pixelmator Pro 3.6.15 -->
<svg width="2008" height="928" viewBox="0 0 2008 928" xmlns="http://www.w3.org/2000/svg">
    <path id="Path" fill="#fefefe" stroke="none" d="M 0 0 L 2008 0 L 2008 928 L 0 928 L 0 0 Z"/>
    <path id="path1" fill="#000000" stroke="none" d="M 14.2 13.626648 C 18.800001 13.693359 23.4 13.693359 28 13.679993 C 678.226685 13.679993 1328.440063 13.679993 1978.666626 13.679993 C 1983.720093 13.693359 1988.773315 13.706665 1993.82666 13.626648 C 1993.933228 18.41333 1993.933228 23.213318 1993.906738 28 C 1993.906738 318.666687 1993.906738 609.333374 1993.906738 900 C 1993.933228 904.799988 1993.946655 909.58667 1993.813354 914.386658 C 1988.759888 914.293274 1983.720093 914.306641 1978.666626 914.320007 C 1328.440063 914.320007 678.226685 914.320007 28 914.320007 C 23.386667 914.306641 18.786667 914.306641 14.173333 914.373352 C 14.066667 909.573303 14.080001 904.786682 14.093333 900 C 14.093333 611.106689 14.093333 322.226685 14.093333 33.333313 C 14.12 26.973328 13.986667 20.613342 14.186667 14.253357 L 14.2 13.626648 Z"/>
    <path id="path2" fill="#fefefe" stroke="none" d="M 68.293335 67.426636 C 692.093323 67.426636 1315.906616 67.426636 1939.706665 67.426636 C 1939.746704 331.799988 1939.746704 596.199951 1939.706665 860.573303 C 1315.906616 860.573303 692.093323 860.573303 68.293335 860.573303 C 68.253334 596.199951 68.253334 331.799988 68.293335 67.426636 Z"/>
    <path id="path3" fill="#000000" stroke="none" d="M 122 121.76001 C 125.466667 120.533325 129.680008 121.280029 133.333328 121.106689 C 713.333313 121.119995 1293.333374 121.106689 1873.333374 121.106689 C 1877.613281 121.039978 1881.853394 121 1886.106567 121.546692 C 1886.026733 349.840027 1886.026733 578.160034 1886.106567 806.453369 C 1881.853394 807.013367 1877.613281 806.959961 1873.333374 806.893311 C 1293.773315 806.893311 714.226624 806.893311 134.666672 806.893311 C 130.386673 806.959961 126.146667 807 121.893333 806.453369 C 122.040001 579.133301 121.813332 348.93335 122 121.76001 Z"/>
    <text id="dutch" xml:space="preserve" x="242" y="273" font-family="Helvetica" font-size="111" font-style="italic" font-weight="700" fill="#fefefe">dutch</text>
    <path id="path4" fill="#fefefe" stroke="none" d="M 1362.06665 219.573303 C 1399.959961 219.65332 1437.866699 219.599976 1475.773315 219.599976 C 1475.34668 225.093323 1474.240112 230.453308 1473.266602 235.853333 C 1469.439941 257.533325 1465.693359 279.226685 1461.839966 300.906677 C 1423.706665 300.919983 1385.546753 301.06665 1347.41333 300.82666 C 1352.599976 273.840027 1356.613403 246.506653 1362.06665 219.573303 Z"/>
    <path id="path5" fill="#fefefe" stroke="none" d="M 397.493317 330.786682 C 413.333344 329.280029 430.82666 329.17334 446.666656 330.946655 C 460.439972 332.23999 474.17334 335.133362 487.199982 339.813354 C 507.773315 347.226685 526.706665 359.853333 540.053345 377.333313 C 554.82666 396.226685 561.880005 420.199982 562.23999 444 C 563.053345 468.399994 557.986633 493.119995 550.039978 516.106689 C 538.146667 549.880005 516.200012 579.76001 486.546661 600.040039 C 457.800018 620.040039 424.079987 630.52002 389.319977 633.146606 C 366.946655 634.986694 344.079987 634.093384 322.119995 629.266724 C 298.346649 624.013306 275.893341 613.47998 258.573334 596.093384 C 244.080002 582.026611 234.693344 563.560059 230.800003 543.800049 C 227.866653 530.226685 228.106674 516.560059 228.719986 502.706665 C 230.520004 481.133331 235.800003 459.733307 244 439.720001 C 256.279999 409.76001 276.82666 383.34668 303.266663 364.573303 C 330.973328 344.799988 363.706665 333.840027 397.493317 330.786682 Z"/>
    <path id="path6" fill="#fefefe" stroke="none" d="M 770.666687 330.133362 C 794.399963 329.373352 817.840027 329.253357 841.453369 332.23999 C 859.440002 334.559998 879.133301 338.626648 894.840027 348.093323 C 906.973328 355.266663 915.93335 367 919.813293 380.533325 C 924.453369 395.946655 923.280029 411.026672 921.440002 426.746674 C 919.106689 445.013336 915.493347 463.226685 912.399963 481.386688 C 906.506653 514.733276 900.666687 548.079956 894.840027 581.439941 C 893.47998 588.959961 891.333313 596.333374 892.93335 604.013306 C 894.600037 610.47998 898.533386 615.640015 903.226624 620.23999 C 902.799988 622.093384 902.386658 623.959961 902 625.82666 C 862.853333 625.853394 823.666687 625.626709 784.52002 625.93335 C 783.360046 622.186646 783.733337 618.506714 783.706726 614.666626 C 783.746643 608.133301 783.733337 601.599976 783.65332 595.06665 C 751.853333 621.093384 711.533386 633.839966 670.666687 633.959961 C 656.493347 634.253296 641.946655 632.626709 628.426697 628.253296 C 614.053345 623.560059 599.93335 614.813354 590.853333 602.573364 C 581.546692 589.946655 578.640015 574.053345 579.58667 558.65332 C 581.373352 538.773315 587.279968 519.453369 599.493347 503.439972 C 610.506653 488.560028 626.600037 477.680023 643.493347 470.506683 C 655.573303 465.23999 669.200012 462.426666 682.093323 459.800018 C 704.493347 455.52002 727.146667 452.373322 749.773376 449.506683 C 763.600037 447.573334 778.546631 445.079987 791.360046 439.306671 C 797.333313 436.453339 803.52002 432.786652 806.600037 426.666656 C 809.879944 419.573334 809.626648 410.23999 803.146667 404.986633 C 796.639954 399.746643 786.706726 398.76001 778.666687 398.266663 C 766.600037 397.946655 752.919983 399.600037 742.959961 407.013367 C 736.280029 411.813293 732.679993 418.65332 729.959961 426.226685 C 693.399963 426.17334 656.82666 426.23999 620.253357 426.199982 C 623.720032 404.466675 634.23999 384.026672 650.640015 369.23999 C 670.666687 350.746643 698.306641 340.866638 724.639954 335.666687 C 739.853333 332.613342 755.213318 331.186646 770.666687 330.133362 Z"/>
    <path id="path7" fill="#fefefe" stroke="none" d="M 1156 330.106689 C 1177.880005 331.640015 1200.119995 334.679993 1220.293335 343.799988 C 1234.333374 350.133362 1246.920044 359.906677 1254.533325 373.506653 C 1262.58667 387.866638 1264.17334 404.17334 1262.920044 420.333344 C 1228.34668 420.386688 1193.773315 420.319977 1159.200073 420.373322 C 1159.133301 413.053345 1158.400024 405.773315 1153.293335 400.080017 C 1147.533325 393.960022 1138.733276 392.320007 1130.666626 392.34668 C 1121.040039 392.200012 1109.640015 393.226685 1101.666626 399.200012 C 1096.34668 403.146667 1092.253296 410.333313 1093.906616 417.093353 C 1095.559937 421.613312 1100.559937 425.040009 1104.65332 427.199982 C 1115.426636 432.853363 1128.293335 435.813324 1140.079956 438.560028 C 1159.386597 443.186676 1178.733276 447.946655 1197.680054 453.906647 C 1211.253296 457.959991 1224.666626 464.640015 1235.359985 474.026642 C 1245.599976 482.93335 1252.693359 494.866669 1254.920044 508.319977 C 1259.266724 541.746704 1243.34668 576.493286 1216.733276 596.786621 C 1189.733276 617.813354 1157.546631 627.400024 1123.986694 631.546631 C 1104.946655 633.946655 1085.82666 634.319946 1066.65332 633.786621 C 1042.893311 632.426636 1018.613342 629.319946 996.93335 618.853394 C 981.840027 611.573364 968.93335 600.333374 961.626648 585.040039 C 954.106689 569.546631 953.159973 553.293335 954.200012 536.359985 C 990.506653 536.160034 1026.82666 536.293335 1063.119995 536.306641 C 1062.799927 541.41333 1062.23999 547.160034 1063.58667 552.133301 C 1066.026733 560.026611 1073.06665 565.906616 1080.626587 568.706665 C 1091.333374 572.560059 1103.786743 571.959961 1114.706665 569.293335 C 1123.146606 567.23999 1130.706665 562.400024 1134.866699 554.626709 C 1137.17334 550.213379 1138.986694 544.786621 1137.693359 539.800049 C 1136.053345 534.386719 1130.386597 530.23999 1125.58667 527.706665 C 1113.893311 521.573364 1099.65332 519.040039 1086.839966 515.986694 C 1067.959961 511.399994 1048.839966 507.160004 1030.306641 501.306671 C 1013.466614 495.65332 996.053284 484.399994 987.746643 468.213348 C 979.866699 453.546661 980.293274 435.466675 984 419.666656 C 988.080017 400.853333 997.666687 383.559998 1011.666687 370.333313 C 1030.893311 351.880005 1057.559937 340.613342 1083.306641 334.986694 C 1107.306641 329.573303 1131.52002 329.080017 1156 330.106689 Z"/>
    <path id="path8" fill="#fefefe" stroke="none" d="M 1674.746704 330.106689 C 1696.040039 331.559998 1717.373413 334.440002 1737.17334 342.880005 C 1753.040039 349.559998 1767.613281 360.906677 1775.146606 376.706665 C 1781.933228 390.533325 1782.959961 405.213318 1781.786621 420.359985 C 1747.226685 420.34668 1712.65332 420.34668 1678.080078 420.359985 C 1678 415.226685 1677.853394 410.34668 1675.733398 405.573303 C 1673.759888 400.786682 1669.773315 397.093323 1665.026733 395.106628 C 1657.759888 391.82666 1649.160034 392.200012 1641.34668 392.573303 C 1633.106567 393.226685 1623.573364 395.453308 1617.799927 401.813293 C 1614.026733 405.813293 1611.17334 412.226685 1613 417.706665 C 1615.680054 422.706665 1621.013306 426.079987 1626.026733 428.41333 C 1638.906738 434.47998 1654.106567 437.253326 1667.919922 440.680023 C 1686.200073 445.23999 1704.693359 449.773315 1722.533325 455.866669 C 1735.640015 460.52002 1748.493286 467.733307 1758.200073 477.813324 C 1766.400024 486 1771.839966 496.506683 1773.786621 507.93335 C 1775.933228 523.773315 1773.546753 539.746704 1767.613281 554.533325 C 1759.386719 575.733276 1743.786621 592.626709 1724.65332 604.573364 C 1695.400024 623.426636 1659.493286 630.986694 1625.186646 633.160034 C 1611.973267 634.359985 1598.573364 633.959961 1585.333374 633.786621 C 1560.946655 632.373291 1535.040039 628.946655 1513.146606 617.439941 C 1497.613281 609.453369 1484.746704 596.599976 1478.439941 580.146606 C 1472.866699 565.973389 1472.226685 551.47998 1473.066772 536.426636 C 1509.373413 536.053345 1545.720093 536.386719 1582.040039 536.253296 C 1581.533325 542.493286 1580.799927 549.06665 1583.626587 554.880005 C 1586.773315 561.839966 1593.560059 566.640015 1600.613281 569.06665 C 1610.973267 572.506714 1622.853394 571.866699 1633.359985 569.359985 C 1641.786621 567.373291 1649.413452 562.706665 1653.680054 554.973389 C 1656.319946 550.306641 1658.186646 543.640015 1656.146606 538.466675 C 1654.093262 533.93335 1649.426636 530.386719 1645.160034 528.026611 C 1636.319946 523.23999 1625.773315 520.613281 1616.040039 518.34668 C 1598.573364 514.34668 1581.146606 510.160004 1563.82666 505.58667 C 1554.599976 502.959991 1545.693359 500.76001 1537.146606 496.226685 C 1524.160034 489.58667 1512.866699 480.600006 1506.253296 467.306671 C 1498.613281 452.026642 1499.240112 434.839996 1503.226685 418.626678 C 1508.133301 396.053345 1521.506714 376.386658 1539.799927 362.453308 C 1560.82666 346.453308 1587.400024 337.080017 1613.306641 332.866638 C 1633.693359 329.359985 1654.133301 329.306641 1674.746704 330.106689 Z"/>
    <path id="path9" fill="#fefefe" stroke="none" d="M 1341.013306 338.026672 C 1378.706665 337.76001 1416.933228 337.973328 1454.680054 337.919983 C 1454.439941 341.226685 1454.106567 344.533325 1453.493286 347.786682 C 1437.133301 440.426666 1421.013306 533.199951 1404.560059 625.800049 C 1366.613281 625.786621 1328.680054 625.800049 1290.746704 625.800049 C 1290.906616 623.839966 1291.106689 621.880005 1291.34668 619.920044 C 1302.026733 558.560059 1312.93335 497.279999 1323.626587 435.93335 C 1329.506714 403.399963 1334.906616 370.466675 1341.013306 338.026672 Z"/>
    <path id="path10" fill="#000000" stroke="none" d="M 428.333344 410.320007 C 437.386688 414.960022 442.34668 423.920013 444.853363 433.453339 C 449.093353 450.160004 447.839996 467.93335 444.266693 484.640015 C 441.146637 500.253326 436.266693 516.626709 427.839996 530.23999 C 420.76001 541.613281 410.533325 551.280029 397.373322 554.959961 C 390.386688 557.17334 383.133331 557.199951 375.880005 556.706665 C 364.786652 555.65332 354.773315 549.506714 349.813324 539.373291 C 343.213348 526.199951 342.786652 509.426666 344.253326 495.053345 C 346.23999 474.079987 350.906647 452.58667 362.973358 434.920013 C 371 423.146637 381.146637 413.093323 395.079987 408.82666 C 405.47998 405.746643 418.466675 405.159973 428.333344 410.320007 Z"/>
    <path id="path11" fill="#000000" stroke="none" d="M 794.573303 498.680023 C 793.320007 516.439941 788.040039 535.866699 776.626648 549.920044 C 766.973328 561.839966 752.466614 568.146606 737.320007 568.946655 C 728 569.253296 717.973328 569.386719 709.333313 565.34668 C 704.013367 562.880005 699.919983 558.079956 699.466614 552.079956 C 698.853333 543.52002 702.159973 534.266724 708.040039 528 C 716.34668 519.306641 727.23999 516.47998 738.466614 513.493286 C 757.386658 508.959991 776.34668 505.839996 794.573303 498.680023 Z"/>
</svg>
